<?xml version="1.0" encoding="UTF-8"?>
<svg xmlns:xlink="http://www.w3.org/1999/xlink" width="4px" height="8px" viewBox="0 0 4 8" version="1.1" xmlns="http://www.w3.org/2000/svg">
    <!-- Generator: Sketch 50.2 (55047) - http://www.bohemiancoding.com/sketch -->
    <title>右展开</title>
    <desc>Created with Sketch.</desc>
    <defs></defs>
    <g id="分析桌面" stroke="none" stroke-width="1" fill="none" fill-rule="evenodd">
        <g id="07-分析门户--侧边菜单" transform="translate(-92.000000, -151.000000)" fill="#000000" fill-rule="nonzero">
            <g id="Group-2" transform="translate(80.000000, 78.000000)">
                <g id="右展开" transform="translate(12.000000, 73.000000)">
                    <path d="M0.0929681667,0.19993665 C0.0444975667,0.270493617 0.0160667,0.356280783 0.0160667,0.448139567 C0.0160667,0.53999835 0.04449755,0.625785517 0.0929681667,0.696854133 L2.80739018,3.42370933 C2.97942502,3.59577827 2.97942502,3.87442455 2.80739018,4.04673225 L0.164036783,6.69869848 C0.0744292667,6.77942028 0.0178404333,6.89566787 0.0178404333,7.02559365 C0.0178404333,7.26896997 0.2150486,7.46614402 0.458407867,7.46614402 C0.55763445,7.46614402 0.648742817,7.43315945 0.722335583,7.3778327 L0.810681017,7.28950432 L3.74178813,4.35809022 C4.08596012,4.0139694 4.08596012,3.45618225 3.74178813,3.11202732 L0.782506,0.152216467 L0.752318467,0.122301817 C0.674137867,0.0512332 0.570596333,0.00755508333 0.4566512,0.00755508333 C0.305662367,0.00755508333 0.172410833,0.0837231667 0.0929681667,0.19993665 Z" id="Shape"></path>
                </g>
            </g>
        </g>
    </g>
</svg>
